<svg xmlns="http://www.w3.org/2000/svg" width="940" height="586" viewBox="0 0 940 586">
<style>text{font-family:Helvetica,Arial,sans-serif;fill:#1f2937}.title{font-size:22px;font-weight:700}.label{font-size:12px}.small{font-size:11px}.axis{stroke:#9ca3af;stroke-width:1}.stem{stroke:#cbd5e1;stroke-width:3}.dot{stroke:#fff;stroke-width:1.5}.baseline{stroke:#d97706;stroke-width:2;stroke-dasharray:6 6}</style>
<text class="title" x="180" y="34">Reasoning Shift: Participant Embedding Distance</text>
<line class="axis" x1="180" y1="536" x2="920" y2="536" />
<text class="label" x="470.0" y="568" text-anchor="middle">Cosine distance between initial and final reasoning embeddings</text>
<line class="axis" x1="180.0" y1="70" x2="180.0" y2="536" opacity="0.25" />
<text class="small" x="180.0" y="554" text-anchor="middle">0.0</text>
<line class="axis" x1="317.4" y1="70" x2="317.4" y2="536" opacity="0.25" />
<text class="small" x="317.4" y="554" text-anchor="middle">0.1</text>
<line class="axis" x1="454.7" y1="70" x2="454.7" y2="536" opacity="0.25" />
<text class="small" x="454.7" y="554" text-anchor="middle">0.2</text>
<line class="axis" x1="592.1" y1="70" x2="592.1" y2="536" opacity="0.25" />
<text class="small" x="592.1" y="554" text-anchor="middle">0.3</text>
<line class="axis" x1="729.5" y1="70" x2="729.5" y2="536" opacity="0.25" />
<text class="small" x="729.5" y="554" text-anchor="middle">0.4</text>
<line class="axis" x1="866.8" y1="70" x2="866.8" y2="536" opacity="0.25" />
<text class="small" x="866.8" y="554" text-anchor="middle">0.5</text>
<line class="baseline" x1="755.4" y1="70" x2="755.4" y2="536" />
<text class="small" x="763.4" y="62" fill="#d97706">Avg random initial distance: 0.419</text>
<circle cx="680" cy="26" r="6" fill="#2563eb" />
<text class="label" x="692" y="30">Stable top choice</text>
<circle cx="830" cy="26" r="6" fill="#dc2626" />
<text class="label" x="842" y="30">Changed top choice</text>
<text class="label" x="18" y="84.0">3c5387b0da49</text>
<line class="stem" x1="180" y1="80.0" x2="900.0" y2="80.0" />
<circle class="dot" cx="900.0" cy="80.0" r="7" fill="#2563eb" />
<text class="small" x="910.0" y="84.0">0.524</text>
<text class="label" x="18" y="110.8">f80d4f54b108</text>
<line class="stem" x1="180" y1="106.8" x2="893.4" y2="106.8" />
<circle class="dot" cx="893.4" cy="106.8" r="7" fill="#2563eb" />
<text class="small" x="903.4" y="110.8">0.519</text>
<text class="label" x="18" y="137.6">84b4783bae78</text>
<line class="stem" x1="180" y1="133.6" x2="813.8" y2="133.6" />
<circle class="dot" cx="813.8" cy="133.6" r="7" fill="#2563eb" />
<text class="small" x="823.8" y="137.6">0.461</text>
<text class="label" x="18" y="164.5">b7252e46e281</text>
<line class="stem" x1="180" y1="160.5" x2="809.4" y2="160.5" />
<circle class="dot" cx="809.4" cy="160.5" r="7" fill="#dc2626" />
<text class="small" x="819.4" y="164.5">0.458</text>
<text class="label" x="18" y="191.3">f302a80daf1f</text>
<line class="stem" x1="180" y1="187.3" x2="791.4" y2="187.3" />
<circle class="dot" cx="791.4" cy="187.3" r="7" fill="#2563eb" />
<text class="small" x="801.4" y="191.3">0.445</text>
<text class="label" x="18" y="218.1">ad571f253120</text>
<line class="stem" x1="180" y1="214.1" x2="732.0" y2="214.1" />
<circle class="dot" cx="732.0" cy="214.1" r="7" fill="#dc2626" />
<text class="small" x="742.0" y="218.1">0.402</text>
<text class="label" x="18" y="244.9">15f012a0dc2c</text>
<line class="stem" x1="180" y1="240.9" x2="707.0" y2="240.9" />
<circle class="dot" cx="707.0" cy="240.9" r="7" fill="#2563eb" />
<text class="small" x="717.0" y="244.9">0.384</text>
<text class="label" x="18" y="271.8">116a3ebe9814</text>
<line class="stem" x1="180" y1="267.8" x2="706.6" y2="267.8" />
<circle class="dot" cx="706.6" cy="267.8" r="7" fill="#2563eb" />
<text class="small" x="716.6" y="271.8">0.383</text>
<text class="label" x="18" y="298.6">e384b04afce3</text>
<line class="stem" x1="180" y1="294.6" x2="688.4" y2="294.6" />
<circle class="dot" cx="688.4" cy="294.6" r="7" fill="#2563eb" />
<text class="small" x="698.4" y="298.6">0.370</text>
<text class="label" x="18" y="325.4">60d929ceffa5</text>
<line class="stem" x1="180" y1="321.4" x2="672.9" y2="321.4" />
<circle class="dot" cx="672.9" cy="321.4" r="7" fill="#2563eb" />
<text class="small" x="682.9" y="325.4">0.359</text>
<text class="label" x="18" y="352.2">455dbb067ce7</text>
<line class="stem" x1="180" y1="348.2" x2="659.3" y2="348.2" />
<circle class="dot" cx="659.3" cy="348.2" r="7" fill="#2563eb" />
<text class="small" x="669.3" y="352.2">0.349</text>
<text class="label" x="18" y="379.1">ec338cde8cdc</text>
<line class="stem" x1="180" y1="375.1" x2="608.3" y2="375.1" />
<circle class="dot" cx="608.3" cy="375.1" r="7" fill="#2563eb" />
<text class="small" x="618.3" y="379.1">0.312</text>
<text class="label" x="18" y="405.9">8948e22761d2</text>
<line class="stem" x1="180" y1="401.9" x2="588.1" y2="401.9" />
<circle class="dot" cx="588.1" cy="401.9" r="7" fill="#2563eb" />
<text class="small" x="598.1" y="405.9">0.297</text>
<text class="label" x="18" y="432.7">679457c68ee8</text>
<line class="stem" x1="180" y1="428.7" x2="582.5" y2="428.7" />
<circle class="dot" cx="582.5" cy="428.7" r="7" fill="#2563eb" />
<text class="small" x="592.5" y="432.7">0.293</text>
<text class="label" x="18" y="459.5">8d4b92f5ba5d</text>
<line class="stem" x1="180" y1="455.5" x2="559.3" y2="455.5" />
<circle class="dot" cx="559.3" cy="455.5" r="7" fill="#dc2626" />
<text class="small" x="569.3" y="459.5">0.276</text>
<text class="label" x="18" y="486.4">61fecb490ab2</text>
<line class="stem" x1="180" y1="482.4" x2="457.9" y2="482.4" />
<circle class="dot" cx="457.9" cy="482.4" r="7" fill="#2563eb" />
<text class="small" x="467.9" y="486.4">0.202</text>
<text class="label" x="18" y="513.2">9d9c3d6a7d9c</text>
<line class="stem" x1="180" y1="509.2" x2="439.5" y2="509.2" />
<circle class="dot" cx="439.5" cy="509.2" r="7" fill="#2563eb" />
<text class="small" x="449.5" y="513.2">0.189</text>
</svg>