<svg xmlns="http://www.w3.org/2000/svg" width="900" height="420" viewBox="0 0 900 420">
<style>text{font-family:Helvetica,Arial,sans-serif;fill:#1f2937}.title{font-size:22px;font-weight:700}.label{font-size:13px}.small{font-size:12px}.line{stroke:#9ca3af;stroke-width:3}.dotA{fill:#0f766e}.dotB{fill:#dc2626}</style>
<text class="title" x="220" y="34">Phase 2 Mean Rank Shift By Option</text>
<circle cx="690" cy="24" r="6" class="dotA" />
<text class="small" x="704" y="28">Initial mean rank</text>
<circle cx="690" cy="44" r="6" class="dotB" />
<text class="small" x="704" y="48">Final mean rank</text>
<text class="label" x="18" y="76.0">Community Animal Rescue Shelter</text>
<line class="line" x1="645.2" y1="70.0" x2="745.2" y2="70.0" />
<circle class="dotA" cx="645.2" cy="70.0" r="7" />
<circle class="dotB" cx="745.2" cy="70.0" r="7" />
<text class="small" x="633.2" y="60.0">2.77</text>
<text class="small" x="755.2" y="60.0">3.00</text>
<text class="label" x="18" y="151.0">Community Food Pantry Network</text>
<line class="line" x1="220.0" y1="145.0" x2="319.9" y2="145.0" />
<circle class="dotA" cx="220.0" cy="145.0" r="7" />
<circle class="dotB" cx="319.9" cy="145.0" r="7" />
<text class="small" x="208.0" y="135.0">1.76</text>
<text class="small" x="329.9" y="135.0">2.00</text>
<text class="label" x="18" y="226.0">Urban Tree Initiative</text>
<line class="line" x1="820.0" y1="220.0" x2="720.1" y2="220.0" />
<circle class="dotA" cx="820.0" cy="220.0" r="7" />
<circle class="dotB" cx="720.1" cy="220.0" r="7" />
<text class="small" x="808.0" y="210.0">3.18</text>
<text class="small" x="730.1" y="210.0">2.94</text>
<text class="label" x="18" y="301.0">Community Health Clinic</text>
<line class="line" x1="444.9" y1="295.0" x2="345.0" y2="295.0" />
<circle class="dotA" cx="444.9" cy="295.0" r="7" />
<circle class="dotB" cx="345.0" cy="295.0" r="7" />
<text class="small" x="432.9" y="285.0">2.29</text>
<text class="small" x="355.0" y="285.0">2.06</text>
</svg>